<?xml version="1.0" encoding="utf-8"?>
<svg viewBox="-49.286529541015625 -29.33721923828125 900 500" width="900px" height="500px" xmlns="http://www.w3.org/2000/svg">
  <defs>
    <pattern id="pattern-0" x="0" y="0" width="20" height="20" patternUnits="userSpaceOnUse" viewBox="0 0 100 100">
      <path d="M 0 0 L 50 0 L 50 100 L 0 100 Z" style="fill: black;"/>
    </pattern>
    <radialGradient id="gradient-1" gradientUnits="userSpaceOnUse" cx="99.713" cy="208.969" r="72.997" gradientTransform="matrix(1, 0, 0, 1, 52.004511, 62.977495)">
      <stop offset="0" style="stop-color: rgba(187, 218, 85, 1)"/>
      <stop offset="1" style="stop-color: rgba(135, 165, 36, 1)"/>
    </radialGradient>
    <linearGradient id="gradient-2" gradientUnits="userSpaceOnUse" x1="145.515" y1="120.706" x2="145.515" y2="283.874" spreadMethod="pad" gradientTransform="matrix(0.999859, 0.016757, -0.017544, 1.046783, 8.341185, 61.571528)">
      <stop offset="0" style="stop-color: rgba(110, 147, 105, 1)"/>
      <stop offset="1" style="stop-color: rgba(65, 87, 62, 1)"/>
    </linearGradient>
    <radialGradient id="gradient-5" gradientUnits="userSpaceOnUse" cx="131.032" cy="258.18" r="72.997" gradientTransform="matrix(-0.533167, 0.869133, -1.119216, -0.686576, 525.793229, 315.373815)">
      <stop offset="0" style="stop-color: rgb(23, 186, 211);"/>
      <stop offset="1" style="stop-color: rgb(40, 116, 210);"/>
    </radialGradient>
    <linearGradient id="gradient-9" gradientUnits="userSpaceOnUse" x1="151.717" y1="198.95" x2="151.717" y2="344.944">
      <stop offset="0" style="stop-color: rgb(147, 159, 197);"/>
      <stop offset="1" style="stop-color: rgb(49, 70, 95);"/>
    </linearGradient>
  </defs>
  <g>
    <ellipse style="stroke-linejoin: bevel; fill-rule: evenodd; paint-order: stroke; fill: url(#gradient-1); stroke: url(#gradient-2); stroke-width: 12;" cx="151.717" cy="271.947" rx="72.997" ry="72.997"/>
    <path d="M 30.534 137.405 L 159.351 136.451 C 186.634 138.997 180.279 170.482 159.351 167.939 L 125.649 168.194 L 121.271 184.484 L 104.433 168.355 L 33.397 168.893 C 14.14 168.893 11.624 137.405 30.534 137.405 Z" style="stroke: black; stroke-width: 1px; fill: rgb(172, 203, 71);"/>
    <text x="38.122" y="161.168" style="fill: rgb(248, 248, 248); font-family: sans-serif; font-size: 24px; white-space: pre;">Performer</text>
    <path d="M 57.989 83.808 L 186.806 82.854 C 214.089 85.4 207.734 116.885 186.806 114.342 L 153.104 114.597 L 148.726 130.887 L 131.888 114.758 L 60.852 115.296 C 41.595 115.296 39.079 83.808 57.989 83.808 Z" style="stroke: black; stroke-width: 1px; fill: rgb(172, 203, 71);"/>
    <text x="65.577" y="107.571" style="fill: rgb(248, 248, 248); font-family: sans-serif; font-size: 24px; white-space: pre;">Innover</text>
    <g>
      <rect x="163.03" y="230.824" width="30.534" height="89.695" style="fill: rgb(96, 126, 51);"/>
      <g>
        <rect x="101.145" y="270.992" width="59.16" height="48.664" style="fill: rgb(96, 126, 51);"/>
        <g>
          <rect transform="matrix(0.999999, 0, 0, 1, -40.251386, -36.18399)" style="fill: rgb(216, 216, 216);" x="145.992" y="314.845" width="9.542" height="6.679"/>
          <rect style="fill: rgb(216, 216, 216);" x="118.756" y="278.661" width="9.542" height="6.679"/>
          <rect style="fill: rgb(216, 216, 216);" x="132.639" y="278.661" width="9.542" height="6.679"/>
          <rect style="fill: rgb(216, 216, 216);" x="145.648" y="278.661" width="9.542" height="6.679"/>
        </g>
        <g transform="matrix(1, 0, 0, 1, -0.146821, 10.265379)">
          <g>
            <rect transform="matrix(0.999999, 0, 0, 1, -40.251272, -36.18399)" style="fill: rgb(216, 216, 216);" x="145.992" y="314.845" width="9.542" height="6.679"/>
            <rect style="fill: rgb(216, 216, 216);" x="118.756" y="278.661" width="9.542" height="6.679"/>
            <rect style="fill: rgb(216, 216, 216);" x="132.639" y="278.661" width="9.542" height="6.679"/>
            <rect style="fill: rgb(216, 216, 216);" x="145.648" y="278.661" width="9.542" height="6.679"/>
          </g>
        </g>
        <g transform="matrix(1, 0, 0, 1, -0.530292, 20.468683)">
          <rect transform="matrix(0.999999, 0, 0, 1, -40.251386, -36.18399)" style="fill: rgb(216, 216, 216);" x="145.992" y="314.845" width="9.542" height="6.679"/>
          <rect style="fill: rgb(216, 216, 216);" x="118.756" y="278.661" width="9.542" height="6.679"/>
          <rect style="fill: rgb(216, 216, 216);" x="132.639" y="278.661" width="9.542" height="6.679"/>
          <rect style="fill: rgb(216, 216, 216);" x="145.648" y="278.661" width="9.542" height="6.679"/>
        </g>
      </g>
    </g>
    <path d="M 20.549 398.724 L 149.366 399.678 C 176.649 397.132 170.294 365.647 149.366 368.19 L 115.664 367.935 L 111.286 351.645 L 94.448 367.774 L 23.412 367.236 C 4.155 367.236 1.639 398.724 20.549 398.724 Z" style="stroke: black; stroke-width: 1px; fill: rgb(172, 203, 71);"/>
    <text x="28.137" y="390.362" style="fill: rgb(248, 248, 248); font-family: sans-serif; font-size: 24px; white-space: pre;">Evoluer</text>
    <path d="M 189.814 388.229 L 318.631 389.183 C 345.914 386.637 339.559 355.152 318.631 357.695 L 238.17 356.517 L 220.564 339.304 L 221.612 356.664 L 192.677 356.741 C 173.42 356.741 170.904 388.229 189.814 388.229 Z" style="stroke: black; stroke-width: 1px; fill: rgb(172, 203, 71);"/>
    <text x="197.402" y="379.867" style="fill: rgb(248, 248, 248); font-family: sans-serif; font-size: 24px; white-space: pre;">Motiver</text>
  </g>
  <g transform="matrix(1, 0, 0, 1, 432.74176, -59.90757)">
    <ellipse style="stroke-linejoin: bevel; stroke-width: 12; paint-order: stroke; fill-rule: evenodd; fill: url(#gradient-5); stroke: url(#gradient-9);" cx="151.717" cy="271.947" rx="72.997" ry="72.997"/>
    <path d="M 30.534 137.405 L 159.351 136.451 C 186.634 138.997 180.279 170.482 159.351 167.939 L 125.649 168.194 L 121.271 184.484 L 104.433 168.355 L 33.397 168.893 C 14.14 168.893 11.624 137.405 30.534 137.405 Z" style="stroke: black; stroke-width: 1px; fill: rgb(59, 134, 212);"/>
    <text x="38.122" y="161.168" style="fill: rgb(248, 248, 248); font-family: sans-serif; font-size: 24px; white-space: pre;">Performer</text>
    <path d="M 57.989 83.808 L 186.806 82.854 C 214.089 85.4 207.734 116.885 186.806 114.342 L 153.104 114.597 L 148.726 130.887 L 131.888 114.758 L 60.852 115.296 C 41.595 115.296 39.079 83.808 57.989 83.808 Z" style="stroke: black; stroke-width: 1px; fill: rgb(59, 134, 212);"/>
    <text x="65.577" y="107.571" style="fill: rgb(248, 248, 248); font-family: sans-serif; font-size: 24px; white-space: pre;">Innover</text>
    <path d="M 20.549 398.724 L 149.366 399.678 C 176.649 397.132 170.294 365.647 149.366 368.19 L 115.664 367.935 L 111.286 351.645 L 94.448 367.774 L 23.412 367.236 C 4.155 367.236 1.639 398.724 20.549 398.724 Z" style="stroke: black; stroke-width: 1px; fill: rgb(59, 134, 212);"/>
    <text x="28.137" y="390.362" style="fill: rgb(248, 248, 248); font-family: sans-serif; font-size: 24px; white-space: pre;">Evoluer</text>
    <path d="M 189.814 388.229 L 318.631 389.183 C 345.914 386.637 339.559 355.152 318.631 357.695 L 238.17 356.517 L 220.564 339.304 L 221.612 356.664 L 192.677 356.741 C 173.42 356.741 170.904 388.229 189.814 388.229 Z" style="stroke: black; stroke-width: 1px; fill: rgb(59, 134, 212);"/>
    <text x="197.402" y="379.867" style="fill: rgb(248, 248, 248); font-family: sans-serif; font-size: 24px; white-space: pre;">Motiver</text>
    <ellipse cx="151.48" cy="312.262" rx="43.419" ry="33.443" style="fill: rgb(48, 65, 94);"/>
    <ellipse cx="173.776" cy="252.414" rx="29.337" ry="28.75" transform="matrix(1, 0, 0, 1.000001, -19.94931, 14.081745)" style="fill: rgb(232, 197, 168);"/>
  </g>
</svg>