<?xml version="1.0" encoding="utf-8"?>
<svg viewBox="-49.286529541015625 -29.33721923828125 900 500" width="900px" height="500px" xmlns="http://www.w3.org/2000/svg">
  <defs>
    <pattern id="pattern-0" x="0" y="0" width="20" height="20" patternUnits="userSpaceOnUse" viewBox="0 0 100 100">
      <path d="M 0 0 L 50 0 L 50 100 L 0 100 Z" style="fill: black;"/>
    </pattern>
  </defs>
  <rect x="-48.043" y="-27.186" width="857.859" height="496.601" style="fill: rgb(208, 218, 224); pointer-events: none;"/>
  <g transform="matrix(1.415225, 0, 0, 1.42553, 52.343418, -129.344788)">
    <title>Entreprise</title>
    <rect x="163.03" y="230.824" width="30.534" height="89.695" style="fill: rgb(51, 103, 126);"/>
    <g>
      <rect x="101.145" y="270.992" width="59.16" height="48.664" style="fill: rgb(51, 103, 126);"/>
      <g>
        <rect transform="matrix(0.999999, 0, 0, 1, -40.251386, -36.18399)" x="145.992" y="314.845" width="9.542" height="6.679" style="fill: rgb(230, 237, 242);"/>
        <rect x="118.756" y="278.661" width="9.542" height="6.679" style="fill: rgb(230, 237, 242);"/>
        <rect x="132.639" y="278.661" width="9.542" height="6.679" style="fill: rgb(230, 237, 242);"/>
        <rect x="145.648" y="278.661" width="9.542" height="6.679" style="fill: rgb(230, 237, 242);"/>
      </g>
      <g transform="matrix(1, 0, 0, 1, -0.146821, 10.265379)">
        <g>
          <rect transform="matrix(0.999999, 0, 0, 1, -40.251272, -36.18399)" x="145.992" y="314.845" width="9.542" height="6.679" style="fill: rgb(51, 103, 126);"/>
          <rect x="118.756" y="278.661" width="9.542" height="6.679" style="fill: rgb(51, 103, 126);"/>
          <rect x="132.639" y="278.661" width="9.542" height="6.679" style="fill: rgb(51, 103, 126);"/>
          <rect x="145.648" y="278.661" width="9.542" height="6.679" style="fill: rgb(51, 103, 126);"/>
        </g>
      </g>
      <g transform="matrix(1, 0, 0, 1, -0.530292, 20.468683)">
        <rect transform="matrix(0.999999, 0, 0, 1, -40.251386, -36.18399)" x="145.992" y="314.845" width="9.542" height="6.679" style="fill: rgb(230, 237, 242);"/>
        <rect x="118.756" y="278.661" width="9.542" height="6.679" style="fill: rgb(230, 237, 242);"/>
        <rect x="132.639" y="278.661" width="9.542" height="6.679" style="fill: rgb(230, 237, 242);"/>
        <rect x="145.648" y="278.661" width="9.542" height="6.679" style="fill: rgb(230, 237, 242);"/>
      </g>
    </g>
  </g>
  <g>
    <title>avatarFlo</title>
    <polygon fill="url(#SVGID_1_)" points="563.727 207.047 557.717 196.785 551.489 194.261 540.03 197.445 547.932 188.558 536.791 184.398 548.408 181.853 541.839 171.941 552.733 176.709 553.246 164.828 559.257 175.09 566.654 165.78 565.485 177.614 576.944 174.43 569.042 183.317 580.182 187.477 568.566 190.022 575.134 199.935 564.24 195.166"/>
    <path fill="#DAEFF9" d="M 553.815 203.832 C 553.731 204.063 552.789 203.924 551.715 203.524 C 550.64 203.124 549.838 202.613 549.922 202.383 C 550.009 202.153 550.95 202.292 552.025 202.691 C 553.099 203.092 553.903 203.603 553.815 203.832 Z"/>
    <path fill="#E1E1E1" d="M 525.195 258.82 C 529.384 259.972 533.936 260.507 538.26 259.943 C 541.938 259.462 546.049 257.91 547.422 254.149 C 548.878 250.166 548.624 245.518 548.232 241.369 C 548.042 239.361 547.777 237.352 547.4 235.37 C 547.225 234.446 547.102 233.464 546.82 232.565 C 551.393 231.876 555.965 231.187 560.537 230.498 C 560.959 235.188 560.742 240.032 560.19 244.699 C 559.591 249.775 558.468 255.124 555.595 259.443 C 549.308 268.888 536.289 267.592 527.083 263.922 C 526.038 263.503 525.005 263.051 523.995 262.549 C 523.523 262.313 523.891 261.962 524.074 261.521 C 524.447 260.621 524.821 259.721 525.195 258.82 Z"/>
    <path fill="#FAC48A" d="M 543.327 212.365 C 543.327 212.365 545.884 210.75 548.127 211.786 L 549.865 219.83 C 549.865 219.83 555.804 218.212 560.644 220.198 C 560.644 220.198 563.005 224.063 561.799 232.012 C 561.799 232.012 553.427 233.653 546.952 233.442 C 546.952 233.442 543.415 230.306 544.079 224.587 L 543.327 212.365 Z"/>
    <path fill="#CE985E" d="M 560.502 226.486 L 556.613 226.618 C 556.651 226.339 556.67 226.058 556.666 225.782 C 556.661 225.355 556.608 224.936 556.518 224.531 C 556.428 224.124 556.301 223.731 556.143 223.355 C 555.983 222.98 555.798 222.618 555.57 222.283 L 555.493 222.328 C 555.654 222.687 555.769 223.068 555.856 223.448 C 555.942 223.829 555.994 224.216 556.009 224.598 C 556.025 224.981 556.004 225.361 555.943 225.73 C 555.891 226.048 555.805 226.356 555.695 226.649 L 553.804 226.714 L 553.311 226.625 L 552.171 226.422 L 551.576 222.785 L 551.485 222.788 L 551.177 226.244 L 546.848 225.471 L 552.441 227.548 C 552.399 227.705 552.357 227.861 552.319 228.019 C 552.243 228.345 552.168 228.675 552.105 229.004 C 552.038 229.333 551.976 229.664 551.921 229.996 C 551.877 230.251 551.839 230.508 551.805 230.764 L 548.572 231.533 L 552.222 231.508 L 552.453 231.507 L 552.573 231.199 C 552.695 230.883 552.809 230.566 552.917 230.248 C 553.024 229.928 553.128 229.607 553.224 229.285 C 553.324 228.963 553.416 228.641 553.502 228.317 C 553.565 228.071 553.627 227.824 553.678 227.576 L 560.511 226.575 L 560.502 226.486 Z"/>
    <path fill="#626161" d="M 518.716 294.093 C 520.099 310.494 520.622 326.998 520.61 343.455 C 517.922 343.35 515.234 343.245 512.547 343.139 C 513.348 332.873 513.893 322.587 514.197 312.295 C 514.348 307.201 514.445 302.106 514.45 297.011 C 514.45 296.696 514.36 294.311 514.517 294.303 C 514.982 294.279 515.447 294.256 515.913 294.233 C 516.848 294.187 517.781 294.14 518.716 294.093 Z"/>
    <path fill="#626161" d="M 488.463 294.303 C 488.375 310.585 489.066 326.904 490.356 343.133 C 487.669 343.243 484.983 343.352 482.295 343.461 C 482.271 333.051 482.536 322.639 483.038 312.241 C 483.284 307.106 483.586 301.971 483.972 296.843 C 483.996 296.525 484.103 294.093 484.266 294.102 C 484.73 294.124 485.195 294.147 485.661 294.168 C 486.595 294.213 487.529 294.258 488.463 294.303 Z"/>
    <path fill="#E1E1E1" d="M 479.439 261.26 C 478.955 261.347 477.985 262.688 477.659 263.168 C 476.734 264.526 476.12 266.083 475.671 267.656 C 474.721 270.987 474.467 274.499 474.467 277.949 C 474.469 284.921 475.122 291.982 476.096 298.882 C 471.473 298.957 466.849 299.032 462.226 299.107 C 462.718 294.001 463.452 288.908 464.345 283.858 C 465.219 278.908 466.241 273.929 468.134 269.254 C 469.822 265.087 472.321 260.567 476.397 258.318 C 477.006 257.983 477.647 257.708 478.322 257.539 C 478.644 257.458 478.624 258.01 478.692 258.281 C 478.94 259.274 479.189 260.267 479.439 261.26 Z"/>
    <path fill="url(#SVGID_2_)" d="M 523.026 292.759 C 523.026 297.894 513.105 297.328 501.144 297.328 C 489.182 297.328 479.26 297.894 479.26 292.759 C 479.26 287.624 489.182 288.19 501.144 288.19 C 513.105 288.19 523.026 287.624 523.026 292.759 Z"/>
    <path fill="url(#SVGID_3_)" d="M 525.486 259.71 C 525.486 257.325 523.552 255.391 521.166 255.391 L 481.122 255.391 C 478.736 255.391 476.802 257.325 476.802 259.71 L 476.802 288.785 C 476.802 291.17 478.736 293.104 481.122 293.104 L 521.166 293.104 C 523.552 293.104 525.486 291.17 525.486 288.785 L 525.486 259.71 Z"/>
    <ellipse fill="#D7D7D7" cx="502.192" cy="347.081" rx="33.785" ry="0.982"/>
    <path fill="url(#SVGID_4_)" d="M 510.93 347.068 L 528.393 347.068 C 528.544 347.068 528.689 346.948 528.706 346.798 C 528.865 345.36 528.043 339.527 514.425 340.227 C 510.991 340.403 510.502 345.499 510.627 346.796 C 510.64 346.948 510.78 347.068 510.93 347.068 Z"/>
    <path fill="url(#SVGID_5_)" d="M 504.001 260.387 C 503.963 260.048 503.739 259.577 503.499 259.333 L 502.69 258.513 C 502.866 258.36 503.372 258.062 503.372 257.639 C 503.372 256.432 502.359 255.941 501.144 255.941 C 499.929 255.941 498.916 256.432 498.916 257.639 C 498.916 258.062 499.421 258.36 499.597 258.513 L 498.788 259.333 C 498.549 259.577 498.325 260.048 498.287 260.387 L 495.513 285.567 C 495.475 285.906 495.663 286.35 495.934 286.558 L 500.654 290.203 C 500.925 290.412 501.362 290.412 501.632 290.203 L 506.354 286.558 C 506.623 286.349 506.812 285.906 506.775 285.567 L 504.001 260.387 Z"/>
    <polygon fill="#F9F9F9" points="501.324 256.11 506.96 260.613 522.753 256.232"/>
    <polygon fill="#F9F9F9" points="501.144 256.11 495.508 260.613 479.715 256.232"/>
    <path fill="url(#SVGID_6_)" d="M 522.352 256.419 C 524.642 256.419 526.848 251.96 527.038 241.343 C 527.616 209.191 527.558 203.69 527.558 203.69 C 527.558 201.303 525.624 199.37 523.238 199.37 L 479.049 199.37 C 476.664 199.37 474.73 201.303 474.73 203.69 C 474.73 203.69 474.671 209.191 475.25 241.343 C 475.44 251.96 477.646 256.419 479.936 256.419 L 522.352 256.419 Z"/>
    <path fill="#CE985E" d="M 527.19 232.105 C 527.629 206.476 527.558 203.69 527.558 203.69 C 527.558 201.303 525.624 199.37 523.238 199.37 L 479.049 199.37 C 476.664 199.37 474.73 201.303 474.73 203.69 C 474.73 203.69 474.68 206.483 475.121 232.16 C 475.316 232.378 475.434 232.488 475.434 232.488 C 475.771 216.783 477.712 210.426 477.712 210.426 C 477.712 210.426 479.392 211.744 485.014 212.018 C 497.044 212.604 522.56 205.574 522.56 205.574 C 527.165 216.99 526.903 232.488 526.903 232.488 C 527.005 232.363 527.094 232.232 527.19 232.105 Z"/>
    <path fill="url(#SVGID_7_)" d="M 475.434 232.488 C 475.434 232.488 469.629 227.13 469.902 214.102 C 470.176 201.074 473.493 196.01 473.493 196.01 L 474.302 198.745 L 476.515 194.834 L 477.294 197.606 L 479.762 194.5 L 479.819 196.833 C 479.819 196.833 514.429 178.456 533.629 188.742 C 533.629 188.742 526.524 190.435 525.743 192.307 C 525.743 192.307 528.685 191.413 530.337 192.307 C 530.337 192.307 527.067 194.431 528.828 198.478 C 530.59 202.526 535.803 221.398 526.883 232.488 C 526.883 232.488 527.399 215.723 522.794 204.306 C 522.794 204.306 496.495 210.858 484.466 210.272 C 478.843 209.998 477.059 208.077 477.059 208.077 C 477.059 208.077 475.77 216.783 475.434 232.488 Z"/>
    <circle fill="#CE985E" cx="514.727" cy="225.455" r="4.246"/>
    <circle fill="url(#SVGID_8_)" cx="101.976" cy="61.761" r="3.754" transform="matrix(1, 0, 0, 1.000001, 412.750671, 163.390549)"/>
    <circle fill="#F6B384" cx="105.063" cy="79.527" r="2.935" transform="matrix(1, 0, 0, 0.999992, 412.750671, 163.39122)"/>
    <circle fill="#F6B384" cx="72.34" cy="79.527" r="2.936" transform="matrix(1, 0, 0, 0.99999, 412.750671, 163.391418)"/>
    <circle fill="#CE985E" cx="74.81" cy="62.065" r="4.246" transform="matrix(0.999998, 0, 0, 1.000002, 412.750824, 163.390503)"/>
    <circle fill="url(#SVGID_9_)" cx="74.81" cy="61.761" r="3.754" transform="matrix(1, 0, 0, 1.000001, 412.750671, 163.390549)"/>
    <ellipse transform="matrix(0.874124, -0.485709, 0.485711, 0.874123, 244.811123, 98.832047)" fill="#FFFFFF" cx="152.661" cy="228.061" rx="1.419" ry="1.636"/>
    <ellipse transform="matrix(0.874112, -0.485693, 0.485715, 0.874116, 248.218939, 112.030653)" fill="#FFFFFF" cx="179.841" cy="228.063" rx="1.419" ry="1.637"/>
    <path fill="#856848" d="M 510.657 243.349 C 510.707 243.746 510.418 244.109 510.01 244.157 C 504.119 244.843 498.167 244.843 492.276 244.157 C 491.868 244.11 491.58 243.746 491.63 243.349 C 491.681 242.951 492.045 242.671 492.443 242.718 C 498.222 243.391 504.062 243.391 509.843 242.718 C 510.242 242.672 510.605 242.952 510.657 243.349 Z"/>
    <path fill="#836F67" d="M 483.807 196.657 C 483.807 196.657 509.592 182.303 530.267 188.426 C 530.267 188.426 504.284 188.065 483.807 196.657 Z"/>
    <path fill="#FAC48A" d="M 476.417 298.554 C 476.417 298.554 470.002 296.787 461.861 298.761 C 461.861 298.761 460.087 305.246 463.097 313.156 C 463.097 313.156 468.423 315.51 474.596 315.51 C 474.596 315.51 474.169 309.748 474.558 305.786 C 474.558 305.786 475.264 307.471 476.063 309.374 C 476.063 309.374 478.185 309.374 479.261 308.139 C 479.26 308.14 478.7 302.991 476.417 298.554 Z"/>
    <path fill="url(#SVGID_10_)" d="M 557.278 200.112 C 559.95 192.929 564.435 194.608 566.601 188.787 C 568.826 182.806 565.647 178.321 561.631 176.827 C 557.616 175.333 552.279 176.648 550.052 182.628 C 547.887 188.449 552.376 190.11 549.703 197.293 L 557.278 200.112 Z"/>
    <path fill="#B6E1F6" d="M 557.521 199.756 C 557.521 199.756 556.21 203.878 555.595 204.132 C 554.981 204.387 548.646 202.029 548.348 201.435 C 548.048 200.84 549.751 196.865 549.751 196.865 L 557.521 199.756 Z"/>
    <path fill="#DAEFF9" d="M 556.969 201.786 C 556.912 201.786 556.856 201.774 556.802 201.75 L 549.123 198.404 C 548.911 198.312 548.814 198.065 548.907 197.853 C 548.998 197.641 549.245 197.545 549.457 197.637 L 557.136 200.983 C 557.348 201.075 557.445 201.322 557.353 201.534 C 557.283 201.692 557.129 201.786 556.969 201.786 Z"/>
    <path fill="#DAEFF9" d="M 556.365 203.406 C 556.309 203.406 556.252 203.395 556.198 203.371 L 548.519 200.025 C 548.306 199.933 548.21 199.686 548.303 199.474 C 548.394 199.262 548.642 199.166 548.853 199.257 L 556.532 202.604 C 556.744 202.696 556.841 202.943 556.748 203.154 C 556.681 203.312 556.526 203.406 556.365 203.406 Z"/>
    <path fill="#FEE406" d="M 556.786 195.04 C 557.454 193.902 558.15 192.783 558.855 191.671 C 559.562 190.56 560.286 189.461 561.021 188.369 C 561.027 188.361 560.961 188.395 561.046 188.553 C 561.148 188.665 561.195 188.616 561.112 188.633 L 560.562 188.684 L 560.012 188.735 C 559.812 188.733 559.707 188.808 559.326 188.722 C 559.071 188.652 558.826 188.503 558.655 188.263 L 558.334 187.813 L 558.013 187.363 L 557.932 187.25 L 557.913 187.222 C 557.914 187.224 557.869 187.172 557.869 187.172 C 557.882 187.197 557.842 187.159 557.808 187.149 C 557.709 187.127 557.753 187.116 557.514 187.177 L 556.978 187.308 L 556.441 187.438 C 556.325 187.463 556.354 187.458 556.252 187.468 C 556.158 187.475 556.078 187.47 556.016 187.461 C 555.881 187.442 555.756 187.407 555.632 187.346 C 555.57 187.321 555.508 187.279 555.447 187.239 C 555.388 187.193 555.317 187.129 555.297 187.104 L 555.103 186.908 L 554.721 186.51 L 554.338 186.111 L 554.314 186.086 C 554.335 186.095 554.358 186.104 554.44 186.096 C 554.608 186.033 554.582 185.959 554.577 185.999 C 554.424 187.278 554.253 188.583 554.061 189.886 C 553.869 191.189 553.662 192.49 553.423 193.788 C 553.449 192.468 553.506 191.151 553.577 189.837 C 553.649 188.522 553.741 187.209 553.847 185.898 C 553.867 185.789 553.889 185.705 553.948 185.605 C 553.977 185.557 554.03 185.5 554.08 185.458 C 554.146 185.415 554.219 185.37 554.299 185.36 C 554.471 185.328 554.588 185.373 554.706 185.44 C 554.779 185.484 554.776 185.489 554.798 185.505 L 554.851 185.55 L 554.876 185.575 L 555.273 185.958 L 555.671 186.341 L 555.868 186.536 C 555.908 186.579 555.911 186.573 555.922 186.585 C 555.94 186.594 555.954 186.606 555.978 186.615 C 556.018 186.636 556.073 186.649 556.12 186.654 C 556.15 186.659 556.162 186.656 556.159 186.659 C 556.149 186.665 556.27 186.642 556.244 186.646 L 556.778 186.508 L 557.313 186.37 C 557.414 186.348 557.451 186.324 557.653 186.298 C 557.815 186.289 557.963 186.315 558.101 186.364 C 558.237 186.422 558.355 186.48 558.503 186.633 L 558.548 186.685 L 558.591 186.742 L 558.611 186.77 L 558.69 186.884 L 559.005 187.338 L 559.32 187.792 C 559.358 187.855 559.445 187.913 559.541 187.942 C 559.517 187.971 559.787 187.945 559.952 187.935 L 560.504 187.905 L 561.056 187.874 C 561.151 187.878 561.408 187.831 561.633 188.09 C 561.687 188.15 561.713 188.231 561.734 188.307 C 561.744 188.371 561.747 188.449 561.737 188.503 C 561.718 188.616 561.679 188.694 561.639 188.766 C 560.846 189.852 560.057 190.906 559.252 191.947 C 558.446 192.988 557.629 194.025 556.786 195.04 Z"/>
    <ellipse transform="matrix(0.983946, -0.178694, 0.178685, 0.983907, 306.444864, 39.830584)" fill="#FFFFFF" cx="228.503" cy="187.966" rx="1.419" ry="2.651"/>
    <path fill="url(#SVGID_11_)" d="M 492.129 347.068 L 474.666 347.068 C 474.515 347.068 474.37 346.948 474.353 346.798 C 474.194 345.36 475.016 339.527 488.634 340.227 C 492.068 340.403 492.557 345.499 492.432 346.796 C 492.419 346.948 492.279 347.068 492.129 347.068 Z"/>
  </g>
  <g transform="matrix(0.992771, 0, 0, 1, -0.347299, 8)">
    <g transform="matrix(1, 0, 0, 1, 0, -2)">
      <title>Performer</title>
      <text x="79.349" y="117.859" style="fill: rgb(51, 103, 126); font-family: sans-serif; font-size: 24px; white-space: pre;">Performer</text>
      <path d="M 66.856 105.086 C 67.026 95.28 68.806 89.746 80.156 89.857 L 203.656 89.61 L 204.259 117.825 C 204.304 127.034 202.682 127.999 193.125 128.309 L 132.659 128.189 L 132.192 141.276 L 118.249 128.16 L 67.043 128.058 L 66.856 105.086 Z" style="stroke-width: 5; stroke: rgb(51, 103, 126); fill: rgba(208, 218, 224, 0);"/>
    </g>
    <g transform="matrix(1, 0, 0, 1, 0, -2)">
      <path d="M 28.372 167.185 C 28.541 157.379 30.308 151.845 41.576 151.956 L 164.183 151.709 L 164.782 179.924 C 164.827 189.133 163.217 190.098 153.729 190.408 L 93.7 190.288 L 93.236 203.375 L 79.394 190.259 L 28.558 190.157 L 28.372 167.185 Z" style="fill: none; stroke-width: 5; stroke: rgb(51, 103, 126);"/>
      <text x="43.905" y="180.431" style="fill: rgb(51, 103, 126); font-family: sans-serif; font-size: 24px; white-space: pre;">Innover</text>
    </g>
    <g>
      <text x="25.014" y="238.363" style="fill: rgb(51, 103, 126); font-family: sans-serif; font-size: 24px; white-space: pre;">Evoluer</text>
      <path d="M 4.901 226.894 C 5.071 217.088 6.851 211.554 18.201 211.665 L 141.701 211.418 L 142.304 239.633 C 142.349 248.842 140.728 249.807 131.171 250.117 L 70.704 249.997 L 70.237 263.084 L 56.294 249.968 L 5.088 249.866 L 4.901 226.894 Z" style="fill: none; stroke-width: 5; stroke: rgb(51, 103, 126);"/>
    </g>
    <g transform="matrix(1, 0, 0, 1, -60.436897, -3)">
      <title>Motiver</title>
      <text x="197.402" y="379.867" style="fill: rgb(51, 103, 126); font-family: sans-serif; font-size: 24px; white-space: pre;">Motiver</text>
      <path d="M 182.78 354.524 C 182.951 344.718 184.744 339.184 196.176 339.295 L 320.569 339.048 L 321.176 367.263 C 321.221 376.472 319.589 377.437 309.962 377.747 L 249.059 377.627 L 248.588 390.714 L 234.545 377.598 L 182.968 377.496 L 182.78 354.524 Z" style="stroke-width: 5; stroke: rgb(51, 103, 126); fill: rgba(208, 218, 224, 0);" transform="matrix(-1, 0, 0, -1, 503.956863, 729.761969)"/>
    </g>
  </g>
  <g transform="matrix(1, 0, 0, 1, 432.74176, -59.90757)">
    <text x="205.107" y="330.062" style="font-family: sans-serif; font-size: 24px; white-space: pre;">Performer</text>
    <text x="227.791" y="249.747" style="font-family: sans-serif; font-size: 24px; white-space: pre;" transform="matrix(1, 0, 0, 1.000001, -56.297714, 52.480771)">Innover</text>
    <text x="219.931" y="388.453" style="font-family: sans-serif; font-size: 24px; white-space: pre;">Evoluer</text>
    <text x="175.455" y="355.058" style="font-family: sans-serif; font-size: 24px; white-space: pre;">Motiver</text>
  </g>
  <g>
    <title>N2-1</title>
    <g transform="matrix(0.992771, 0, 0, 1, -100.87114, -39.818382)">
      <title>group</title>
      <text x="79.349" y="117.859" style="fill: rgb(51, 103, 126); font-family: sans-serif; font-size: 24px; white-space: pre;">Niveau 2</text>
      <path d="M 66.856 105.086 C 67.026 95.28 68.806 89.746 80.156 89.857 L 203.656 89.61 L 204.259 117.825 C 204.304 127.034 202.682 127.999 193.125 128.309 L 132.659 128.189 L 132.192 141.276 L 118.249 128.16 L 67.043 128.058 L 66.856 105.086 Z" style="stroke-width: 5; stroke: rgb(51, 103, 126); fill: rgba(208, 218, 224, 0);"/>
    </g>
    <g transform="matrix(0.992771, 0, 0, 1, 148.174652, -2.604641)">
      <title>group</title>
      <text x="79.349" y="117.859" style="fill: rgb(51, 103, 126); font-family: sans-serif; font-size: 24px; white-space: pre;">Niveau 2</text>
      <path d="M 66.856 105.086 C 67.026 95.28 68.806 89.746 80.156 89.857 L 203.656 89.61 L 204.259 117.825 C 204.304 127.034 202.682 127.999 193.125 128.309 L 132.659 128.189 L 132.192 141.276 L 118.249 128.16 L 67.043 128.058 L 66.856 105.086 Z" style="stroke-width: 5; stroke: rgb(51, 103, 126); fill: rgba(208, 218, 224, 0);"/>
    </g>
    <g transform="matrix(0.992771, 0, 0, 1, -74.153572, -97.070297)">
      <title>group</title>
      <text x="79.349" y="117.859" style="fill: rgb(51, 103, 126); font-family: sans-serif; font-size: 24px; white-space: pre;">Niveau 2</text>
      <path d="M 66.856 105.086 C 67.026 95.28 68.806 89.746 80.156 89.857 L 203.656 89.61 L 204.259 117.825 C 204.304 127.034 202.682 127.999 193.125 128.309 L 132.659 128.189 L 132.192 141.276 L 118.249 128.16 L 67.043 128.058 L 66.856 105.086 Z" style="stroke-width: 5; stroke: rgb(51, 103, 126); fill: rgba(208, 218, 224, 0);"/>
    </g>
    <g transform="matrix(0.992771, 0, 0, 1, 66.113594, -111.38327)">
      <title>group</title>
      <text x="79.349" y="117.859" style="fill: rgb(51, 103, 126); font-family: sans-serif; font-size: 24px; white-space: pre;">Niveau 2</text>
      <path d="M 66.856 105.086 C 67.026 95.28 68.806 89.746 80.156 89.857 L 203.656 89.61 L 204.259 117.825 C 204.304 127.034 202.682 127.999 193.125 128.309 L 132.659 128.189 L 132.192 141.276 L 118.249 128.16 L 67.043 128.058 L 66.856 105.086 Z" style="stroke-width: 5; stroke: rgb(51, 103, 126); fill: rgba(208, 218, 224, 0);"/>
    </g>
    <g transform="matrix(0.992771, 0, 0, 1, 38.495262, -55.589375)">
      <title>group</title>
      <text x="79.349" y="117.859" style="fill: rgb(51, 103, 126); font-family: sans-serif; font-size: 24px; white-space: pre;">Niveau 2</text>
      <path d="M 66.856 105.086 C 67.026 95.28 68.806 89.746 80.156 89.857 L 203.656 89.61 L 204.259 117.825 C 204.304 127.034 202.682 127.999 193.125 128.309 L 132.659 128.189 L 132.192 141.276 L 118.249 128.16 L 67.043 128.058 L 66.856 105.086 Z" style="stroke-width: 5; stroke: rgb(51, 103, 126); fill: rgba(208, 218, 224, 0);"/>
    </g>
    <g transform="matrix(0.992771, 0, 0, 1, 185.388412, -65.581741)">
      <title>group</title>
      <text x="79.349" y="117.859" style="fill: rgb(51, 103, 126); font-family: sans-serif; font-size: 24px; white-space: pre;">Niveau 2</text>
      <path d="M 66.856 105.086 C 67.026 95.28 68.806 89.746 80.156 89.857 L 203.656 89.61 L 204.259 117.825 C 204.304 127.034 202.682 127.999 193.125 128.309 L 132.659 128.189 L 132.192 141.276 L 118.249 128.16 L 67.043 128.058 L 66.856 105.086 Z" style="stroke-width: 5; stroke: rgb(51, 103, 126); fill: rgba(208, 218, 224, 0);"/>
    </g>
  </g>
  <g transform="matrix(1, 0, 0, 1, -18.725174, 384.541992)">
    <title>N2-2</title>
    <g transform="matrix(0.992771, 0, 0, 1, -100.87114, -39.818382)">
      <title>group</title>
      <text x="79.349" y="117.859" style="fill: rgb(51, 103, 126); font-family: sans-serif; font-size: 24px; white-space: pre;">Niveau 2</text>
      <path d="M 66.856 105.086 C 67.026 95.28 68.806 89.746 80.156 89.857 L 203.656 89.61 L 204.259 117.825 C 204.304 127.034 202.682 127.999 193.125 128.309 L 132.659 128.189 L 132.192 141.276 L 118.249 128.16 L 67.043 128.058 L 66.856 105.086 Z" style="stroke-width: 5; stroke: rgb(51, 103, 126); fill: rgba(208, 218, 224, 0);"/>
    </g>
    <g transform="matrix(0.992771, 0, 0, 1, 148.174652, -2.604641)">
      <title>group</title>
      <text x="79.349" y="117.859" style="fill: rgb(51, 103, 126); font-family: sans-serif; font-size: 24px; white-space: pre;">Niveau 2</text>
      <path d="M 66.856 105.086 C 67.026 95.28 68.806 89.746 80.156 89.857 L 203.656 89.61 L 204.259 117.825 C 204.304 127.034 202.682 127.999 193.125 128.309 L 132.659 128.189 L 132.192 141.276 L 118.249 128.16 L 67.043 128.058 L 66.856 105.086 Z" style="stroke-width: 5; stroke: rgb(51, 103, 126); fill: rgba(208, 218, 224, 0);"/>
    </g>
    <g transform="matrix(0.992771, 0, 0, 1, -74.153572, -97.070297)">
      <title>group</title>
      <text x="79.349" y="117.859" style="fill: rgb(51, 103, 126); font-family: sans-serif; font-size: 24px; white-space: pre;">Niveau 2</text>
      <path d="M 66.856 105.086 C 67.026 95.28 68.806 89.746 80.156 89.857 L 203.656 89.61 L 204.259 117.825 C 204.304 127.034 202.682 127.999 193.125 128.309 L 132.659 128.189 L 132.192 141.276 L 118.249 128.16 L 67.043 128.058 L 66.856 105.086 Z" style="stroke-width: 5; stroke: rgb(51, 103, 126); fill: rgba(208, 218, 224, 0);"/>
    </g>
    <g transform="matrix(0.992771, 0, 0, 1, 40.350235, -48.40617)">
      <title>group</title>
      <text x="79.349" y="117.859" style="fill: rgb(51, 103, 126); font-family: sans-serif; font-size: 24px; white-space: pre;">Niveau 2</text>
      <path d="M 66.856 105.086 C 67.026 95.28 68.806 89.746 80.156 89.857 L 203.656 89.61 L 204.259 117.825 C 204.304 127.034 202.682 127.999 193.125 128.309 L 132.659 128.189 L 132.192 141.276 L 118.249 128.16 L 67.043 128.058 L 66.856 105.086 Z" style="stroke-width: 5; stroke: rgb(51, 103, 126); fill: rgba(208, 218, 224, 0);"/>
    </g>
    <g transform="matrix(0.992771, 0, 0, 1, 185.388412, -65.581741)">
      <title>group</title>
      <text x="79.349" y="117.859" style="fill: rgb(51, 103, 126); font-family: sans-serif; font-size: 24px; white-space: pre;">Niveau 2</text>
      <path d="M 66.856 105.086 C 67.026 95.28 68.806 89.746 80.156 89.857 L 203.656 89.61 L 204.259 117.825 C 204.304 127.034 202.682 127.999 193.125 128.309 L 132.659 128.189 L 132.192 141.276 L 118.249 128.16 L 67.043 128.058 L 66.856 105.086 Z" style="stroke-width: 5; stroke: rgb(51, 103, 126); fill: rgba(208, 218, 224, 0);"/>
    </g>
  </g>
  <radialGradient id="SVGID_1_" cx="310.1465" cy="274.5635" r="33.4837" gradientTransform="matrix(0.590849, 0.179045, -0.179049, 0.59085, 424.046244, -30.658713)" gradientUnits="userSpaceOnUse">
    <stop offset="0" style="stop-color:#FFFFFF"/>
    <stop offset="0.4041" style="stop-color:#FFFFFE"/>
    <stop offset="0.5497" style="stop-color:#FFFEF9"/>
    <stop offset="0.6534" style="stop-color:#FFFDF1"/>
    <stop offset="0.7373" style="stop-color:#FFFCE5"/>
    <stop offset="0.8093" style="stop-color:#FEFAD4"/>
    <stop offset="0.8729" style="stop-color:#FEF7BF"/>
    <stop offset="0.9304" style="stop-color:#FDF3A2"/>
    <stop offset="0.9816" style="stop-color:#FDF07F"/>
    <stop offset="1" style="stop-color:#FCEE6F"/>
  </radialGradient>
  <linearGradient id="SVGID_2_" gradientUnits="userSpaceOnUse" x1="266.8823" y1="487.6738" x2="266.8823" y2="478.6712" gradientTransform="matrix(0.61741, 0, 0, 0.617403, 336.36748, -4.02981)">
    <stop offset="0" style="stop-color:#626161"/>
    <stop offset="1" style="stop-color:#444545"/>
  </linearGradient>
  <radialGradient id="SVGID_3_" cx="266.8818" cy="423.9717" r="67.083" gradientUnits="userSpaceOnUse" gradientTransform="matrix(0.617399, 0, 0, 0.617398, 336.370466, -4.026164)">
    <stop offset="0" style="stop-color:#EAE9EA"/>
    <stop offset="0.5153" style="stop-color:#E8E8E8"/>
    <stop offset="0.7009" style="stop-color:#E2E2E3"/>
    <stop offset="0.8331" style="stop-color:#D8D8D9"/>
    <stop offset="0.9394" style="stop-color:#CACACB"/>
    <stop offset="1" style="stop-color:#BEBFC1"/>
  </radialGradient>
  <radialGradient id="SVGID_4_" cx="305.3506" cy="561.3877" r="24.3532" gradientUnits="userSpaceOnUse" gradientTransform="matrix(0.617394, 0, 0, 0.617399, 336.372041, -4.026)">
    <stop offset="0" style="stop-color:#454545"/>
    <stop offset="0.8283" style="stop-color:#2B2B2B"/>
    <stop offset="1" style="stop-color:#252525"/>
  </radialGradient>
  <linearGradient id="SVGID_5_" gradientUnits="userSpaceOnUse" x1="266.8828" y1="418.7671" x2="266.8828" y2="488.3853" gradientTransform="matrix(0.617398, 0, 0, 0.617399, 336.370698, -4.026964)">
    <stop offset="0" style="stop-color:#1693CD"/>
    <stop offset="1" style="stop-color:#33AADD"/>
  </linearGradient>
  <radialGradient id="SVGID_6_" cx="266.8828" cy="375.6436" r="44.5267" gradientUnits="userSpaceOnUse" gradientTransform="matrix(0.617397, 0, 0, 0.617398, 336.370793, -4.026184)">
    <stop offset="0" style="stop-color:#FAC58A"/>
    <stop offset="0.5128" style="stop-color:#F9C38A"/>
    <stop offset="0.8579" style="stop-color:#F8BC88"/>
    <stop offset="1" style="stop-color:#F7B786"/>
  </radialGradient>
  <linearGradient id="SVGID_7_" gradientUnits="userSpaceOnUse" x1="267.8818" y1="305.3042" x2="267.8818" y2="383.5546" gradientTransform="matrix(0.617398, 0, 0, 0.617398, 336.370417, -4.026566)">
    <stop offset="0" style="stop-color:#574537"/>
    <stop offset="0.3455" style="stop-color:#4C3B2F"/>
    <stop offset="1" style="stop-color:#33241D"/>
  </linearGradient>
  <radialGradient id="SVGID_8_" cx="288.8828" cy="371.2007" r="6.0801" gradientUnits="userSpaceOnUse" gradientTransform="matrix(0.617405, 0, 0, 0.617401, -76.382187, -167.418088)">
    <stop offset="0" style="stop-color:#343434"/>
    <stop offset="0.3629" style="stop-color:#333333"/>
    <stop offset="0.5575" style="stop-color:#2F2F2F"/>
    <stop offset="0.7122" style="stop-color:#292929"/>
    <stop offset="0.846" style="stop-color:#212020"/>
    <stop offset="0.9649" style="stop-color:#151515"/>
    <stop offset="1" style="stop-color:#111111"/>
  </radialGradient>
  <radialGradient id="SVGID_9_" cx="283.7256" cy="371.2007" r="6.0801" gradientTransform="matrix(-0.617396, 0, 0, 0.617401, 249.981332, -167.418088)" gradientUnits="userSpaceOnUse">
    <stop offset="0" style="stop-color:#343434"/>
    <stop offset="0.3629" style="stop-color:#333333"/>
    <stop offset="0.5575" style="stop-color:#2F2F2F"/>
    <stop offset="0.7122" style="stop-color:#292929"/>
    <stop offset="0.846" style="stop-color:#212020"/>
    <stop offset="0.9649" style="stop-color:#151515"/>
    <stop offset="1" style="stop-color:#111111"/>
  </radialGradient>
  <radialGradient id="SVGID_10_" cx="227.3169" cy="155.8613" r="37.3336" gradientTransform="matrix(0.391802, 0.145829, -0.145829, 0.391802, 492.389232, 90.227141)" gradientUnits="userSpaceOnUse">
    <stop offset="0" style="stop-color:#FEF39E"/>
    <stop offset="0.4501" style="stop-color:#FEF39D"/>
    <stop offset="0.6122" style="stop-color:#FEF296"/>
    <stop offset="0.7277" style="stop-color:#FDF18A"/>
    <stop offset="0.8212" style="stop-color:#FCEF79"/>
    <stop offset="0.9012" style="stop-color:#FBED61"/>
    <stop offset="0.9708" style="stop-color:#FAEA3E"/>
    <stop offset="1" style="stop-color:#F9E925"/>
  </radialGradient>
  <radialGradient id="SVGID_11_" cx="76.5044" cy="561.3877" r="24.3515" gradientTransform="matrix(-0.617396, 0, 0, 0.617397, 525.39866, -4.025882)" gradientUnits="userSpaceOnUse">
    <stop offset="0" style="stop-color:#454545"/>
    <stop offset="0.8283" style="stop-color:#2B2B2B"/>
    <stop offset="1" style="stop-color:#252525"/>
  </radialGradient>
</svg>