<?xml version="1.0" encoding="utf-8"?>
<svg version="1.1" id="Capa_1" x="0px" y="0px" width="60px" height="60px" viewBox="0 0 60 60" style="enable-background:new 0 0 612 612;" xmlns="http://www.w3.org/2000/svg">
  <g transform="matrix(0.089639, 0, 0, 0.089639, 5, 4.15294)">
    <g transform="matrix(-1, 0, 0, -1, 589.688293, 600.844055)">
      <path d="M587.572,186.881c-32.266-75.225-87.096-129.934-162.956-162.285C386.711,8.427,346.985,0.168,305.497,0.168&#10;&#9;&#9;&#9;c-41.488,0-80.914,8.181-118.784,24.428C111.488,56.861,56.415,111.535,24.092,186.881C7.895,224.629,0,264.176,0,305.664&#10;&#9;&#9;&#9;c0,41.496,7.895,81.371,24.092,119.127c32.323,75.346,87.396,130.348,162.621,162.621c37.87,16.247,77.295,24.42,118.784,24.42&#10;&#9;&#9;&#9;c41.489,0,81.214-8.259,119.12-24.42c75.86-32.352,130.69-87.403,162.956-162.621C603.819,386.914,612,347.16,612,305.664&#10;&#9;&#9;&#9;C612,264.176,603.819,224.757,587.572,186.881z M538.717,440.853c-24.014,41.195-56.922,73.876-98.375,98.039&#10;&#9;&#9;&#9;c-41.196,24.021-86.325,36.135-134.845,36.135c-36.47,0-71.27-7.024-104.399-21.415c-33.123-14.384-61.733-33.294-85.662-57.215&#10;&#9;&#9;&#9;c-23.921-23.928-42.966-52.811-57.214-85.997c-14.198-33.065-21.08-68.258-21.08-104.735c0-48.52,11.921-93.428,35.799-134.509&#10;&#9;&#9;&#9;c23.971-41.231,56.886-73.947,98.04-98.04c41.16-24.092,85.997-36.142,134.517-36.142s93.649,12.121,134.845,36.142&#10;&#9;&#9;&#9;c41.453,24.164,74.283,56.879,98.375,98.04c24.092,41.153,36.142,85.99,36.142,134.509&#10;&#9;&#9;&#9;C574.858,354.185,562.888,399.399,538.717,440.853z" style="fill: rgb(208, 218, 224);"/>
      <path d="M 228.026 128.995 C 220.423 121.2 208.624 121.628 201.928 128.324 C 194.233 136.019 194.654 147.305 201.257 154.087 L 350.828 307.678 L 201.257 457.242 C 194.047 464.459 194.568 476.316 201.257 483.012 C 204.94 486.689 209.623 488.701 214.977 488.701 C 219.996 488.701 224.343 486.68 228.026 483.012 L 390.312 321.391 C 397.542 314.196 396.921 302.067 390.312 295.293 L 228.026 128.995 Z" transform="matrix(-1, 0, 0, -1, 591.547305, 611.926)" style="fill: rgb(208, 218, 224);"/>
    </g>
  </g>
</svg>